<svg width="452" height="322" viewBox="0 0 452 322" fill="none" xmlns="http://www.w3.org/2000/svg">
<g filter="url(#filter0_b_188_3201)">
<rect width="452" height="322" rx="16" fill="#44288C" fill-opacity="0.4"/>
<rect x="1" y="1" width="450" height="320" rx="15" stroke="#0014DB" stroke-opacity="0.7" stroke-width="2"/>
</g>
<path d="M21.1649 257.64C20.3903 257.64 19.7416 257.421 19.2189 256.982C18.7056 256.543 18.3136 255.941 18.0429 255.176C17.7816 254.411 17.6509 253.552 17.6509 252.6C17.6509 251.629 17.7816 250.766 18.0429 250.01C18.3136 249.254 18.7056 248.657 19.2189 248.218C19.7416 247.779 20.3903 247.56 21.1649 247.56C21.9396 247.56 22.5836 247.779 23.0969 248.218C23.6196 248.657 24.0116 249.254 24.2729 250.01C24.5343 250.766 24.6649 251.629 24.6649 252.6C24.6649 253.552 24.5343 254.411 24.2729 255.176C24.0116 255.941 23.6196 256.543 23.0969 256.982C22.5836 257.421 21.9396 257.64 21.1649 257.64ZM21.1649 256.506C21.6596 256.506 22.0749 256.347 22.4109 256.03C22.7563 255.713 23.0176 255.265 23.1949 254.686C23.3723 254.098 23.4609 253.403 23.4609 252.6C23.4609 251.788 23.3723 251.093 23.1949 250.514C23.0176 249.926 22.7563 249.478 22.4109 249.17C22.0749 248.853 21.6596 248.694 21.1649 248.694C20.6703 248.694 20.2503 248.853 19.9049 249.17C19.5689 249.478 19.3076 249.926 19.1209 250.514C18.9436 251.093 18.8549 251.788 18.8549 252.6C18.8549 253.403 18.9436 254.098 19.1209 254.686C19.3076 255.265 19.5689 255.713 19.9049 256.03C20.2503 256.347 20.6703 256.506 21.1649 256.506ZM26.7311 257.486C26.5351 257.486 26.3811 257.43 26.2691 257.318C26.1665 257.206 26.1151 257.052 26.1151 256.856V256.576C26.1151 256.371 26.1665 256.212 26.2691 256.1C26.3811 255.988 26.5351 255.932 26.7311 255.932H26.8431C27.0485 255.932 27.2025 255.988 27.3051 256.1C27.4078 256.212 27.4591 256.371 27.4591 256.576V256.856C27.4591 257.052 27.4078 257.206 27.3051 257.318C27.2025 257.43 27.0485 257.486 26.8431 257.486H26.7311ZM31.5346 257.556C31.1612 257.556 30.7786 257.5 30.3866 257.388C30.0039 257.267 29.6679 257.089 29.3786 256.856C29.3039 256.791 29.2432 256.707 29.1966 256.604C29.1499 256.501 29.1266 256.403 29.1266 256.31C29.1266 256.198 29.1732 256.091 29.2666 255.988C29.3692 255.876 29.4999 255.82 29.6586 255.82C29.7799 255.82 29.9199 255.881 30.0786 256.002C30.2839 256.161 30.5126 256.287 30.7646 256.38C31.0166 256.473 31.2686 256.52 31.5206 256.52C32.0432 256.52 32.4959 256.422 32.8786 256.226C33.2612 256.03 33.5552 255.755 33.7606 255.4C33.9659 255.045 34.0686 254.63 34.0686 254.154C34.0686 253.725 33.9706 253.351 33.7746 253.034C33.5879 252.707 33.3219 252.455 32.9766 252.278C32.6406 252.101 32.2532 252.012 31.8146 252.012C31.4879 252.012 31.1939 252.063 30.9326 252.166C30.6806 252.259 30.4566 252.357 30.2606 252.46C30.0739 252.563 29.9106 252.614 29.7706 252.614C29.5932 252.614 29.4579 252.577 29.3646 252.502C29.2712 252.418 29.2106 252.315 29.1826 252.194C29.1546 252.073 29.1452 251.961 29.1546 251.858L29.7006 248.232C29.7286 248.111 29.7939 248.003 29.8966 247.91C29.9992 247.817 30.1252 247.77 30.2746 247.77H34.4326C34.5819 247.77 34.7079 247.821 34.8106 247.924C34.9132 248.027 34.9646 248.157 34.9646 248.316C34.9646 248.465 34.9132 248.591 34.8106 248.694C34.7079 248.787 34.5819 248.834 34.4326 248.834H30.5546L30.6946 248.708L30.1766 251.872L29.9526 251.578C30.0552 251.485 30.2092 251.391 30.4146 251.298C30.6292 251.205 30.8719 251.125 31.1426 251.06C31.4226 250.995 31.7072 250.962 31.9966 250.962C32.6032 250.962 33.1446 251.102 33.6206 251.382C34.1059 251.653 34.4886 252.026 34.7686 252.502C35.0486 252.978 35.1886 253.524 35.1886 254.14C35.1886 254.821 35.0392 255.419 34.7406 255.932C34.4419 256.445 34.0172 256.847 33.4666 257.136C32.9252 257.416 32.2812 257.556 31.5346 257.556Z" fill="#B1BAED"/>
<path d="M20.1709 194.5C20.0029 194.5 19.8629 194.444 19.7509 194.332C19.6389 194.22 19.5829 194.085 19.5829 193.926V185.96L19.7509 186.156L18.1689 187.248C18.0756 187.313 17.9683 187.346 17.8469 187.346C17.6883 187.346 17.5529 187.29 17.4409 187.178C17.3289 187.057 17.2729 186.921 17.2729 186.772C17.2729 186.567 17.3709 186.403 17.5669 186.282L19.7929 184.812C19.8676 184.765 19.9423 184.733 20.0169 184.714C20.0916 184.695 20.1663 184.691 20.2409 184.7C20.4089 184.7 20.5396 184.756 20.6329 184.868C20.7356 184.971 20.7869 185.101 20.7869 185.26V193.926C20.7869 194.085 20.7263 194.22 20.6049 194.332C20.4929 194.444 20.3483 194.5 20.1709 194.5ZM23.5866 194.486C23.3906 194.486 23.2366 194.43 23.1246 194.318C23.0219 194.206 22.9706 194.052 22.9706 193.856V193.576C22.9706 193.371 23.0219 193.212 23.1246 193.1C23.2366 192.988 23.3906 192.932 23.5866 192.932H23.6986C23.9039 192.932 24.0579 192.988 24.1606 193.1C24.2633 193.212 24.3146 193.371 24.3146 193.576V193.856C24.3146 194.052 24.2633 194.206 24.1606 194.318C24.0579 194.43 23.9039 194.486 23.6986 194.486H23.5866ZM29.286 194.64C28.5114 194.64 27.8627 194.421 27.34 193.982C26.8267 193.543 26.4347 192.941 26.164 192.176C25.9027 191.411 25.772 190.552 25.772 189.6C25.772 188.629 25.9027 187.766 26.164 187.01C26.4347 186.254 26.8267 185.657 27.34 185.218C27.8627 184.779 28.5114 184.56 29.286 184.56C30.0607 184.56 30.7047 184.779 31.218 185.218C31.7407 185.657 32.1327 186.254 32.394 187.01C32.6554 187.766 32.786 188.629 32.786 189.6C32.786 190.552 32.6554 191.411 32.394 192.176C32.1327 192.941 31.7407 193.543 31.218 193.982C30.7047 194.421 30.0607 194.64 29.286 194.64ZM29.286 193.506C29.7807 193.506 30.196 193.347 30.532 193.03C30.8774 192.713 31.1387 192.265 31.316 191.686C31.4934 191.098 31.582 190.403 31.582 189.6C31.582 188.788 31.4934 188.093 31.316 187.514C31.1387 186.926 30.8774 186.478 30.532 186.17C30.196 185.853 29.7807 185.694 29.286 185.694C28.7914 185.694 28.3714 185.853 28.026 186.17C27.69 186.478 27.4287 186.926 27.242 187.514C27.0647 188.093 26.976 188.788 26.976 189.6C26.976 190.403 27.0647 191.098 27.242 191.686C27.4287 192.265 27.69 192.713 28.026 193.03C28.3714 193.347 28.7914 193.506 29.286 193.506Z" fill="#B1BAED"/>
<path d="M20.1709 131.5C20.0029 131.5 19.8629 131.444 19.7509 131.332C19.6389 131.22 19.5829 131.085 19.5829 130.926V122.96L19.7509 123.156L18.1689 124.248C18.0756 124.313 17.9683 124.346 17.8469 124.346C17.6883 124.346 17.5529 124.29 17.4409 124.178C17.3289 124.057 17.2729 123.921 17.2729 123.772C17.2729 123.567 17.3709 123.403 17.5669 123.282L19.7929 121.812C19.8676 121.765 19.9423 121.733 20.0169 121.714C20.0916 121.695 20.1663 121.691 20.2409 121.7C20.4089 121.7 20.5396 121.756 20.6329 121.868C20.7356 121.971 20.7869 122.101 20.7869 122.26V130.926C20.7869 131.085 20.7263 131.22 20.6049 131.332C20.4929 131.444 20.3483 131.5 20.1709 131.5ZM23.5866 131.486C23.3906 131.486 23.2366 131.43 23.1246 131.318C23.0219 131.206 22.9706 131.052 22.9706 130.856V130.576C22.9706 130.371 23.0219 130.212 23.1246 130.1C23.2366 129.988 23.3906 129.932 23.5866 129.932H23.6986C23.9039 129.932 24.0579 129.988 24.1606 130.1C24.2633 130.212 24.3146 130.371 24.3146 130.576V130.856C24.3146 131.052 24.2633 131.206 24.1606 131.318C24.0579 131.43 23.9039 131.486 23.6986 131.486H23.5866ZM28.39 131.556C28.0167 131.556 27.634 131.5 27.242 131.388C26.8594 131.267 26.5234 131.089 26.234 130.856C26.1594 130.791 26.0987 130.707 26.052 130.604C26.0054 130.501 25.982 130.403 25.982 130.31C25.982 130.198 26.0287 130.091 26.122 129.988C26.2247 129.876 26.3554 129.82 26.514 129.82C26.6354 129.82 26.7754 129.881 26.934 130.002C27.1394 130.161 27.368 130.287 27.62 130.38C27.872 130.473 28.124 130.52 28.376 130.52C28.8987 130.52 29.3514 130.422 29.734 130.226C30.1167 130.03 30.4107 129.755 30.616 129.4C30.8214 129.045 30.924 128.63 30.924 128.154C30.924 127.725 30.826 127.351 30.63 127.034C30.4434 126.707 30.1774 126.455 29.832 126.278C29.496 126.101 29.1087 126.012 28.67 126.012C28.3434 126.012 28.0494 126.063 27.788 126.166C27.536 126.259 27.312 126.357 27.116 126.46C26.9294 126.563 26.766 126.614 26.626 126.614C26.4487 126.614 26.3134 126.577 26.22 126.502C26.1267 126.418 26.066 126.315 26.038 126.194C26.01 126.073 26.0007 125.961 26.01 125.858L26.556 122.232C26.584 122.111 26.6494 122.003 26.752 121.91C26.8547 121.817 26.9807 121.77 27.13 121.77H31.288C31.4374 121.77 31.5634 121.821 31.666 121.924C31.7687 122.027 31.82 122.157 31.82 122.316C31.82 122.465 31.7687 122.591 31.666 122.694C31.5634 122.787 31.4374 122.834 31.288 122.834H27.41L27.55 122.708L27.032 125.872L26.808 125.578C26.9107 125.485 27.0647 125.391 27.27 125.298C27.4847 125.205 27.7274 125.125 27.998 125.06C28.278 124.995 28.5627 124.962 28.852 124.962C29.4587 124.962 30 125.102 30.476 125.382C30.9614 125.653 31.344 126.026 31.624 126.502C31.904 126.978 32.044 127.524 32.044 128.14C32.044 128.821 31.8947 129.419 31.596 129.932C31.2974 130.445 30.8727 130.847 30.322 131.136C29.7807 131.416 29.1367 131.556 28.39 131.556Z" fill="#B1BAED"/>
<path d="M23.5169 67.45C23.6663 67.45 23.7923 67.5013 23.8949 67.604C23.9976 67.7067 24.0489 67.8327 24.0489 67.982C24.0489 68.1313 23.9976 68.2573 23.8949 68.36C23.7923 68.4533 23.6663 68.5 23.5169 68.5H18.4349C18.2669 68.5 18.1269 68.4533 18.0149 68.36C17.9123 68.2573 17.8609 68.122 17.8609 67.954C17.8609 67.8047 17.9169 67.6693 18.0289 67.548L21.1929 64.09C21.6596 63.586 22.0096 63.1147 22.2429 62.676C22.4856 62.228 22.6069 61.8313 22.6069 61.486C22.6069 60.9167 22.4343 60.464 22.0889 60.128C21.7529 59.7827 21.3003 59.61 20.7309 59.61C20.4789 59.61 20.2269 59.666 19.9749 59.778C19.7229 59.8807 19.4943 60.0253 19.2889 60.212C19.0836 60.3893 18.9156 60.59 18.7849 60.814C18.7103 60.9353 18.6309 61.0147 18.5469 61.052C18.4723 61.08 18.3929 61.094 18.3089 61.094C18.1689 61.094 18.0429 61.0473 17.9309 60.954C17.8189 60.8513 17.7629 60.7347 17.7629 60.604C17.7629 60.5013 17.7909 60.408 17.8469 60.324C17.9029 60.2307 17.9776 60.128 18.0709 60.016C18.2669 59.7453 18.5096 59.5027 18.7989 59.288C19.0976 59.064 19.4196 58.8867 19.7649 58.756C20.1196 58.6253 20.4649 58.56 20.8009 58.56C21.3983 58.56 21.9163 58.6767 22.3549 58.91C22.8029 59.1433 23.1483 59.4747 23.3909 59.904C23.6336 60.3333 23.7549 60.8373 23.7549 61.416C23.7549 61.9107 23.6056 62.4567 23.3069 63.054C23.0083 63.6513 22.5696 64.258 21.9909 64.874L19.5409 67.59L19.4009 67.45H23.5169ZM26.1432 68.486C25.9472 68.486 25.7932 68.43 25.6812 68.318C25.5786 68.206 25.5272 68.052 25.5272 67.856V67.576C25.5272 67.3707 25.5786 67.212 25.6812 67.1C25.7932 66.988 25.9472 66.932 26.1432 66.932H26.2552C26.4606 66.932 26.6146 66.988 26.7172 67.1C26.8199 67.212 26.8712 67.3707 26.8712 67.576V67.856C26.8712 68.052 26.8199 68.206 26.7172 68.318C26.6146 68.43 26.4606 68.486 26.2552 68.486H26.1432ZM31.8427 68.64C31.068 68.64 30.4193 68.4207 29.8967 67.982C29.3833 67.5433 28.9913 66.9413 28.7207 66.176C28.4593 65.4107 28.3287 64.552 28.3287 63.6C28.3287 62.6293 28.4593 61.766 28.7207 61.01C28.9913 60.254 29.3833 59.6567 29.8967 59.218C30.4193 58.7793 31.068 58.56 31.8427 58.56C32.6173 58.56 33.2613 58.7793 33.7747 59.218C34.2973 59.6567 34.6893 60.254 34.9507 61.01C35.212 61.766 35.3427 62.6293 35.3427 63.6C35.3427 64.552 35.212 65.4107 34.9507 66.176C34.6893 66.9413 34.2973 67.5433 33.7747 67.982C33.2613 68.4207 32.6173 68.64 31.8427 68.64ZM31.8427 67.506C32.3373 67.506 32.7527 67.3473 33.0887 67.03C33.434 66.7127 33.6953 66.2647 33.8727 65.686C34.05 65.098 34.1387 64.4027 34.1387 63.6C34.1387 62.788 34.05 62.0927 33.8727 61.514C33.6953 60.926 33.434 60.478 33.0887 60.17C32.7527 59.8527 32.3373 59.694 31.8427 59.694C31.348 59.694 30.928 59.8527 30.5827 60.17C30.2467 60.478 29.9853 60.926 29.7987 61.514C29.6213 62.0927 29.5327 62.788 29.5327 63.6C29.5327 64.4027 29.6213 65.098 29.7987 65.686C29.9853 66.2647 30.2467 66.7127 30.5827 67.03C30.928 67.3473 31.348 67.506 31.8427 67.506Z" fill="#B1BAED"/>
<line x1="53.2617" y1="251" x2="417.099" y2="251" stroke="#3C4795" stroke-width="2" stroke-linecap="round" stroke-dasharray="2 6"/>
<line x1="53.2617" y1="188" x2="417.099" y2="188" stroke="#3C4795" stroke-width="2" stroke-linecap="round" stroke-dasharray="2 6"/>
<line x1="53.2617" y1="125" x2="417.099" y2="125" stroke="#3C4795" stroke-width="2" stroke-linecap="round" stroke-dasharray="2 6"/>
<line x1="53.2617" y1="62" x2="417.099" y2="62" stroke="#3C4795" stroke-width="2" stroke-linecap="round" stroke-dasharray="2 6"/>
<path d="M71.3411 285.64C70.7717 285.64 70.2537 285.495 69.7871 285.206C69.3297 284.917 68.9704 284.529 68.7091 284.044C68.6437 283.932 68.6111 283.825 68.6111 283.722C68.6111 283.563 68.6717 283.437 68.7931 283.344C68.9144 283.241 69.0357 283.19 69.1571 283.19C69.2597 283.19 69.3531 283.218 69.4371 283.274C69.5304 283.33 69.6097 283.4 69.6751 283.484C69.8617 283.801 70.0951 284.053 70.3751 284.24C70.6551 284.427 70.9771 284.52 71.3411 284.52C71.7237 284.52 72.0597 284.436 72.3491 284.268C72.6477 284.1 72.8811 283.871 73.0491 283.582C73.2264 283.283 73.3151 282.947 73.3151 282.574V276.26C73.3151 276.101 73.3711 275.971 73.4831 275.868C73.6044 275.756 73.7491 275.7 73.9171 275.7C74.0851 275.7 74.2204 275.756 74.3231 275.868C74.4351 275.971 74.4911 276.101 74.4911 276.26V282.574C74.4911 283.143 74.3511 283.661 74.0711 284.128C73.8004 284.595 73.4271 284.963 72.9511 285.234C72.4844 285.505 71.9477 285.64 71.3411 285.64ZM82.7151 278.192C82.8738 278.192 83.0044 278.248 83.1071 278.36C83.2191 278.463 83.2751 278.593 83.2751 278.752V284.926C83.2751 285.085 83.2191 285.22 83.1071 285.332C83.0044 285.444 82.8738 285.5 82.7151 285.5C82.5471 285.5 82.4118 285.444 82.3091 285.332C82.2064 285.22 82.1551 285.085 82.1551 284.926V283.596L82.4211 283.568C82.4211 283.773 82.3511 283.997 82.2111 284.24C82.0711 284.483 81.8798 284.711 81.6371 284.926C81.3944 285.131 81.1051 285.304 80.7691 285.444C80.4424 285.575 80.0878 285.64 79.7051 285.64C79.0704 285.64 78.5011 285.477 77.9971 285.15C77.4931 284.814 77.0918 284.361 76.7931 283.792C76.5038 283.223 76.3591 282.574 76.3591 281.846C76.3591 281.109 76.5038 280.46 76.7931 279.9C77.0918 279.331 77.4931 278.887 77.9971 278.57C78.5011 278.243 79.0611 278.08 79.6771 278.08C80.0784 278.08 80.4518 278.145 80.7971 278.276C81.1424 278.407 81.4411 278.584 81.6931 278.808C81.9544 279.032 82.1551 279.279 82.2951 279.55C82.4444 279.821 82.5191 280.091 82.5191 280.362L82.1551 280.278V278.752C82.1551 278.593 82.2064 278.463 82.3091 278.36C82.4118 278.248 82.5471 278.192 82.7151 278.192ZM79.8311 284.604C80.2978 284.604 80.7084 284.483 81.0631 284.24C81.4271 283.997 81.7071 283.671 81.9031 283.26C82.1084 282.84 82.2111 282.369 82.2111 281.846C82.2111 281.333 82.1084 280.871 81.9031 280.46C81.7071 280.04 81.4271 279.713 81.0631 279.48C80.7084 279.237 80.2978 279.116 79.8311 279.116C79.3738 279.116 78.9631 279.233 78.5991 279.466C78.2444 279.699 77.9644 280.021 77.7591 280.432C77.5538 280.843 77.4511 281.314 77.4511 281.846C77.4511 282.369 77.5491 282.84 77.7451 283.26C77.9504 283.671 78.2304 283.997 78.5851 284.24C78.9491 284.483 79.3644 284.604 79.8311 284.604ZM88.9487 278.08C89.5834 278.08 90.0827 278.211 90.4467 278.472C90.8107 278.733 91.0674 279.083 91.2167 279.522C91.3754 279.961 91.4547 280.451 91.4547 280.992V284.926C91.4547 285.085 91.3987 285.22 91.2867 285.332C91.184 285.444 91.0534 285.5 90.8947 285.5C90.736 285.5 90.6007 285.444 90.4887 285.332C90.386 285.22 90.3347 285.085 90.3347 284.926V281.02C90.3347 280.665 90.2787 280.348 90.1667 280.068C90.064 279.779 89.8867 279.55 89.6347 279.382C89.392 279.205 89.056 279.116 88.6267 279.116C88.2347 279.116 87.8754 279.205 87.5487 279.382C87.222 279.55 86.9607 279.779 86.7647 280.068C86.5687 280.348 86.4707 280.665 86.4707 281.02V284.926C86.4707 285.085 86.4147 285.22 86.3027 285.332C86.2 285.444 86.0694 285.5 85.9107 285.5C85.752 285.5 85.6167 285.444 85.5047 285.332C85.402 285.22 85.3507 285.085 85.3507 284.926V278.822C85.3507 278.663 85.402 278.533 85.5047 278.43C85.6167 278.318 85.752 278.262 85.9107 278.262C86.0787 278.262 86.214 278.318 86.3167 278.43C86.4194 278.533 86.4707 278.663 86.4707 278.822V279.816L86.1907 280.124C86.2374 279.881 86.3447 279.639 86.5127 279.396C86.6807 279.144 86.8907 278.92 87.1427 278.724C87.3947 278.528 87.6747 278.374 87.9827 278.262C88.2907 278.141 88.6127 278.08 88.9487 278.08Z" fill="#B1BAED"/>
<path d="M134.581 285.5C134.413 285.5 134.273 285.444 134.161 285.332C134.058 285.22 134.007 285.085 134.007 284.926V276.26C134.007 276.101 134.058 275.971 134.161 275.868C134.273 275.756 134.408 275.7 134.567 275.7H139.481C139.639 275.7 139.775 275.751 139.887 275.854C139.999 275.957 140.055 276.087 140.055 276.246C140.055 276.395 139.999 276.521 139.887 276.624C139.775 276.727 139.639 276.778 139.481 276.778H135.071L135.155 276.666V280.096L135.085 279.942H138.851C139.009 279.942 139.145 279.998 139.257 280.11C139.369 280.213 139.425 280.343 139.425 280.502C139.425 280.642 139.369 280.768 139.257 280.88C139.145 280.983 139.009 281.034 138.851 281.034H135.057L135.155 280.908V284.926C135.155 285.085 135.099 285.22 134.987 285.332C134.875 285.444 134.739 285.5 134.581 285.5ZM144.868 285.64C144.121 285.64 143.468 285.481 142.908 285.164C142.348 284.847 141.909 284.413 141.592 283.862C141.284 283.302 141.13 282.658 141.13 281.93C141.13 281.118 141.288 280.427 141.606 279.858C141.932 279.279 142.352 278.841 142.866 278.542C143.388 278.234 143.939 278.08 144.518 278.08C144.947 278.08 145.362 278.159 145.764 278.318C146.165 278.477 146.52 278.71 146.828 279.018C147.136 279.317 147.383 279.681 147.57 280.11C147.756 280.53 147.854 281.001 147.864 281.524C147.864 281.673 147.808 281.799 147.696 281.902C147.584 282.005 147.453 282.056 147.304 282.056H141.774L141.522 281.09H146.912L146.688 281.286V280.978C146.65 280.595 146.52 280.269 146.296 279.998C146.081 279.718 145.815 279.503 145.498 279.354C145.19 279.205 144.863 279.13 144.518 279.13C144.238 279.13 143.958 279.181 143.678 279.284C143.407 279.377 143.16 279.536 142.936 279.76C142.721 279.975 142.544 280.255 142.404 280.6C142.273 280.945 142.208 281.361 142.208 281.846C142.208 282.387 142.315 282.863 142.53 283.274C142.754 283.685 143.062 284.011 143.454 284.254C143.846 284.487 144.303 284.604 144.826 284.604C145.152 284.604 145.437 284.562 145.68 284.478C145.922 284.394 146.132 284.291 146.31 284.17C146.487 284.039 146.636 283.909 146.758 283.778C146.879 283.694 146.996 283.652 147.108 283.652C147.248 283.652 147.36 283.699 147.444 283.792C147.537 283.885 147.584 283.997 147.584 284.128C147.584 284.287 147.509 284.427 147.36 284.548C147.098 284.837 146.744 285.094 146.296 285.318C145.848 285.533 145.372 285.64 144.868 285.64ZM153.117 278.08C153.752 278.08 154.321 278.243 154.825 278.57C155.329 278.887 155.726 279.326 156.015 279.886C156.314 280.446 156.463 281.095 156.463 281.832C156.463 282.569 156.314 283.223 156.015 283.792C155.726 284.361 155.329 284.814 154.825 285.15C154.33 285.477 153.77 285.64 153.145 285.64C152.8 285.64 152.473 285.589 152.165 285.486C151.866 285.374 151.591 285.229 151.339 285.052C151.096 284.865 150.891 284.665 150.723 284.45C150.555 284.226 150.434 284.007 150.359 283.792L150.667 283.596V284.996C150.667 285.155 150.616 285.29 150.513 285.402C150.41 285.514 150.275 285.57 150.107 285.57C149.948 285.57 149.813 285.519 149.701 285.416C149.598 285.304 149.547 285.164 149.547 284.996V275.714C149.547 275.555 149.598 275.42 149.701 275.308C149.813 275.196 149.948 275.14 150.107 275.14C150.275 275.14 150.41 275.196 150.513 275.308C150.616 275.42 150.667 275.555 150.667 275.714V280.026L150.457 279.914C150.522 279.681 150.634 279.457 150.793 279.242C150.961 279.018 151.162 278.822 151.395 278.654C151.638 278.477 151.904 278.337 152.193 278.234C152.492 278.131 152.8 278.08 153.117 278.08ZM152.991 279.116C152.524 279.116 152.109 279.233 151.745 279.466C151.39 279.699 151.11 280.021 150.905 280.432C150.709 280.843 150.611 281.309 150.611 281.832C150.611 282.355 150.709 282.826 150.905 283.246C151.11 283.666 151.39 283.997 151.745 284.24C152.109 284.483 152.524 284.604 152.991 284.604C153.458 284.604 153.868 284.483 154.223 284.24C154.578 283.997 154.858 283.666 155.063 283.246C155.268 282.826 155.371 282.355 155.371 281.832C155.371 281.309 155.268 280.843 155.063 280.432C154.858 280.021 154.578 279.699 154.223 279.466C153.868 279.233 153.458 279.116 152.991 279.116Z" fill="#B1BAED"/>
<path d="M202.96 275.686C203.044 275.686 203.132 275.709 203.226 275.756C203.328 275.803 203.408 275.863 203.464 275.938L207.174 281.552L206.684 281.538L210.436 275.938C210.557 275.761 210.716 275.677 210.912 275.686C211.061 275.695 211.192 275.751 211.304 275.854C211.416 275.957 211.472 276.092 211.472 276.26V284.926C211.472 285.085 211.416 285.22 211.304 285.332C211.192 285.444 211.052 285.5 210.884 285.5C210.716 285.5 210.576 285.444 210.464 285.332C210.352 285.22 210.296 285.085 210.296 284.926V277.324L210.646 277.394L207.342 282.42C207.286 282.485 207.216 282.541 207.132 282.588C207.057 282.635 206.978 282.658 206.894 282.658C206.81 282.658 206.726 282.635 206.642 282.588C206.558 282.541 206.488 282.485 206.432 282.42L203.17 277.394L203.464 277.03V284.926C203.464 285.085 203.412 285.22 203.31 285.332C203.207 285.444 203.076 285.5 202.918 285.5C202.759 285.5 202.628 285.444 202.526 285.332C202.432 285.22 202.386 285.085 202.386 284.926V276.26C202.386 276.111 202.437 275.98 202.54 275.868C202.652 275.747 202.792 275.686 202.96 275.686ZM219.693 278.192C219.851 278.192 219.982 278.248 220.085 278.36C220.197 278.463 220.253 278.593 220.253 278.752V284.926C220.253 285.085 220.197 285.22 220.085 285.332C219.982 285.444 219.851 285.5 219.693 285.5C219.525 285.5 219.389 285.444 219.287 285.332C219.184 285.22 219.133 285.085 219.133 284.926V283.596L219.399 283.568C219.399 283.773 219.329 283.997 219.189 284.24C219.049 284.483 218.857 284.711 218.615 284.926C218.372 285.131 218.083 285.304 217.747 285.444C217.42 285.575 217.065 285.64 216.683 285.64C216.048 285.64 215.479 285.477 214.975 285.15C214.471 284.814 214.069 284.361 213.771 283.792C213.481 283.223 213.337 282.574 213.337 281.846C213.337 281.109 213.481 280.46 213.771 279.9C214.069 279.331 214.471 278.887 214.975 278.57C215.479 278.243 216.039 278.08 216.655 278.08C217.056 278.08 217.429 278.145 217.775 278.276C218.12 278.407 218.419 278.584 218.671 278.808C218.932 279.032 219.133 279.279 219.273 279.55C219.422 279.821 219.497 280.091 219.497 280.362L219.133 280.278V278.752C219.133 278.593 219.184 278.463 219.287 278.36C219.389 278.248 219.525 278.192 219.693 278.192ZM216.809 284.604C217.275 284.604 217.686 284.483 218.041 284.24C218.405 283.997 218.685 283.671 218.881 283.26C219.086 282.84 219.189 282.369 219.189 281.846C219.189 281.333 219.086 280.871 218.881 280.46C218.685 280.04 218.405 279.713 218.041 279.48C217.686 279.237 217.275 279.116 216.809 279.116C216.351 279.116 215.941 279.233 215.577 279.466C215.222 279.699 214.942 280.021 214.737 280.432C214.531 280.843 214.429 281.314 214.429 281.846C214.429 282.369 214.527 282.84 214.723 283.26C214.928 283.671 215.208 283.997 215.563 284.24C215.927 284.483 216.342 284.604 216.809 284.604ZM222.888 285.5C222.73 285.5 222.594 285.444 222.482 285.332C222.38 285.22 222.328 285.085 222.328 284.926V278.822C222.328 278.663 222.38 278.533 222.482 278.43C222.594 278.318 222.73 278.262 222.888 278.262C223.056 278.262 223.192 278.318 223.294 278.43C223.397 278.533 223.448 278.663 223.448 278.822V280.67L223.28 280.376C223.336 280.087 223.434 279.807 223.574 279.536C223.724 279.256 223.91 279.009 224.134 278.794C224.358 278.57 224.615 278.397 224.904 278.276C225.194 278.145 225.511 278.08 225.856 278.08C226.062 278.08 226.248 278.131 226.416 278.234C226.594 278.327 226.682 278.463 226.682 278.64C226.682 278.836 226.631 278.981 226.528 279.074C226.426 279.167 226.309 279.214 226.178 279.214C226.057 279.214 225.94 279.191 225.828 279.144C225.716 279.088 225.576 279.06 225.408 279.06C225.175 279.06 224.942 279.125 224.708 279.256C224.484 279.377 224.274 279.555 224.078 279.788C223.892 280.021 223.738 280.287 223.616 280.586C223.504 280.875 223.448 281.188 223.448 281.524V284.926C223.448 285.085 223.392 285.22 223.28 285.332C223.178 285.444 223.047 285.5 222.888 285.5Z" fill="#B1BAED"/>
<path d="M273.144 277.156L269.854 285.164C269.817 285.276 269.751 285.365 269.658 285.43C269.565 285.495 269.467 285.528 269.364 285.528C269.187 285.528 269.056 285.481 268.972 285.388C268.888 285.295 268.846 285.183 268.846 285.052C268.837 284.987 268.846 284.917 268.874 284.842L272.5 276.022C272.547 275.891 272.617 275.798 272.71 275.742C272.813 275.677 272.925 275.649 273.046 275.658C273.167 275.658 273.275 275.691 273.368 275.756C273.471 275.821 273.541 275.91 273.578 276.022L277.19 284.758C277.218 284.833 277.232 284.907 277.232 284.982C277.232 285.15 277.176 285.285 277.064 285.388C276.952 285.481 276.826 285.528 276.686 285.528C276.574 285.528 276.471 285.495 276.378 285.43C276.285 285.365 276.215 285.271 276.168 285.15L272.836 277.142L273.144 277.156ZM270.554 282.882L271.03 281.79H275.188L275.398 282.882H270.554ZM282.14 278.15C282.774 278.15 283.344 278.309 283.848 278.626C284.352 278.943 284.748 279.382 285.038 279.942C285.336 280.502 285.486 281.146 285.486 281.874C285.486 282.593 285.336 283.237 285.038 283.806C284.748 284.366 284.352 284.809 283.848 285.136C283.353 285.453 282.793 285.612 282.168 285.612C281.822 285.612 281.496 285.561 281.188 285.458C280.889 285.346 280.614 285.206 280.362 285.038C280.119 284.861 279.914 284.665 279.746 284.45C279.578 284.226 279.456 284.007 279.382 283.792L279.69 283.596V287.726C279.69 287.885 279.638 288.02 279.536 288.132C279.433 288.244 279.298 288.3 279.13 288.3C278.971 288.3 278.836 288.244 278.724 288.132C278.621 288.029 278.57 287.894 278.57 287.726V278.78C278.57 278.621 278.621 278.491 278.724 278.388C278.836 278.276 278.971 278.22 279.13 278.22C279.298 278.22 279.433 278.276 279.536 278.388C279.638 278.491 279.69 278.621 279.69 278.78V280.026L279.48 279.914C279.545 279.681 279.657 279.457 279.816 279.242C279.984 279.027 280.184 278.841 280.418 278.682C280.66 278.514 280.926 278.383 281.216 278.29C281.514 278.197 281.822 278.15 282.14 278.15ZM282.014 279.186C281.547 279.186 281.132 279.303 280.768 279.536C280.413 279.769 280.133 280.087 279.928 280.488C279.732 280.889 279.634 281.351 279.634 281.874C279.634 282.387 279.732 282.849 279.928 283.26C280.133 283.671 280.413 283.993 280.768 284.226C281.132 284.459 281.547 284.576 282.014 284.576C282.48 284.576 282.891 284.459 283.246 284.226C283.6 283.993 283.88 283.671 284.086 283.26C284.291 282.849 284.394 282.387 284.394 281.874C284.394 281.351 284.291 280.889 284.086 280.488C283.88 280.087 283.6 279.769 283.246 279.536C282.891 279.303 282.48 279.186 282.014 279.186ZM287.729 285.5C287.571 285.5 287.435 285.444 287.323 285.332C287.221 285.22 287.169 285.085 287.169 284.926V278.822C287.169 278.663 287.221 278.533 287.323 278.43C287.435 278.318 287.571 278.262 287.729 278.262C287.897 278.262 288.033 278.318 288.135 278.43C288.238 278.533 288.289 278.663 288.289 278.822V280.67L288.121 280.376C288.177 280.087 288.275 279.807 288.415 279.536C288.565 279.256 288.751 279.009 288.975 278.794C289.199 278.57 289.456 278.397 289.745 278.276C290.035 278.145 290.352 278.08 290.697 278.08C290.903 278.08 291.089 278.131 291.257 278.234C291.435 278.327 291.523 278.463 291.523 278.64C291.523 278.836 291.472 278.981 291.369 279.074C291.267 279.167 291.15 279.214 291.019 279.214C290.898 279.214 290.781 279.191 290.669 279.144C290.557 279.088 290.417 279.06 290.249 279.06C290.016 279.06 289.783 279.125 289.549 279.256C289.325 279.377 289.115 279.555 288.919 279.788C288.733 280.021 288.579 280.287 288.457 280.586C288.345 280.875 288.289 281.188 288.289 281.524V284.926C288.289 285.085 288.233 285.22 288.121 285.332C288.019 285.444 287.888 285.5 287.729 285.5Z" fill="#B1BAED"/>
<path d="M337.223 276.043C337.307 276.043 337.396 276.066 337.489 276.113C337.592 276.16 337.671 276.22 337.727 276.295L341.437 281.909L340.947 281.895L344.699 276.295C344.821 276.118 344.979 276.034 345.175 276.043C345.325 276.052 345.455 276.108 345.567 276.211C345.679 276.314 345.735 276.449 345.735 276.617V285.283C345.735 285.442 345.679 285.577 345.567 285.689C345.455 285.801 345.315 285.857 345.147 285.857C344.979 285.857 344.839 285.801 344.727 285.689C344.615 285.577 344.559 285.442 344.559 285.283V277.681L344.909 277.751L341.605 282.777C341.549 282.842 341.479 282.898 341.395 282.945C341.321 282.992 341.241 283.015 341.157 283.015C341.073 283.015 340.989 282.992 340.905 282.945C340.821 282.898 340.751 282.842 340.695 282.777L337.433 277.751L337.727 277.387V285.283C337.727 285.442 337.676 285.577 337.573 285.689C337.471 285.801 337.34 285.857 337.181 285.857C337.023 285.857 336.892 285.801 336.789 285.689C336.696 285.577 336.649 285.442 336.649 285.283V276.617C336.649 276.468 336.701 276.337 336.803 276.225C336.915 276.104 337.055 276.043 337.223 276.043ZM353.956 278.549C354.115 278.549 354.246 278.605 354.348 278.717C354.46 278.82 354.516 278.95 354.516 279.109V285.283C354.516 285.442 354.46 285.577 354.348 285.689C354.246 285.801 354.115 285.857 353.956 285.857C353.788 285.857 353.653 285.801 353.55 285.689C353.448 285.577 353.396 285.442 353.396 285.283V283.953L353.662 283.925C353.662 284.13 353.592 284.354 353.452 284.597C353.312 284.84 353.121 285.068 352.878 285.283C352.636 285.488 352.346 285.661 352.01 285.801C351.684 285.932 351.329 285.997 350.946 285.997C350.312 285.997 349.742 285.834 349.238 285.507C348.734 285.171 348.333 284.718 348.034 284.149C347.745 283.58 347.6 282.931 347.6 282.203C347.6 281.466 347.745 280.817 348.034 280.257C348.333 279.688 348.734 279.244 349.238 278.927C349.742 278.6 350.302 278.437 350.918 278.437C351.32 278.437 351.693 278.502 352.038 278.633C352.384 278.764 352.682 278.941 352.934 279.165C353.196 279.389 353.396 279.636 353.536 279.907C353.686 280.178 353.76 280.448 353.76 280.719L353.396 280.635V279.109C353.396 278.95 353.448 278.82 353.55 278.717C353.653 278.605 353.788 278.549 353.956 278.549ZM351.072 284.961C351.539 284.961 351.95 284.84 352.304 284.597C352.668 284.354 352.948 284.028 353.144 283.617C353.35 283.197 353.452 282.726 353.452 282.203C353.452 281.69 353.35 281.228 353.144 280.817C352.948 280.397 352.668 280.07 352.304 279.837C351.95 279.594 351.539 279.473 351.072 279.473C350.615 279.473 350.204 279.59 349.84 279.823C349.486 280.056 349.206 280.378 349 280.789C348.795 281.2 348.692 281.671 348.692 282.203C348.692 282.726 348.79 283.197 348.986 283.617C349.192 284.028 349.472 284.354 349.826 284.597C350.19 284.84 350.606 284.961 351.072 284.961ZM362.01 278.507C362.169 278.507 362.299 278.563 362.402 278.675C362.514 278.778 362.57 278.908 362.57 279.067V285.171C362.57 285.955 362.416 286.604 362.108 287.117C361.8 287.64 361.385 288.027 360.862 288.279C360.349 288.531 359.765 288.657 359.112 288.657C358.748 288.657 358.398 288.62 358.062 288.545C357.726 288.47 357.451 288.372 357.236 288.251C357.059 288.167 356.933 288.06 356.858 287.929C356.793 287.808 356.783 287.677 356.83 287.537C356.895 287.369 356.989 287.252 357.11 287.187C357.241 287.122 357.376 287.122 357.516 287.187C357.665 287.252 357.88 287.341 358.16 287.453C358.449 287.574 358.771 287.635 359.126 287.635C359.611 287.635 360.027 287.542 360.372 287.355C360.717 287.168 360.983 286.893 361.17 286.529C361.357 286.174 361.45 285.731 361.45 285.199V284.205L361.618 284.555C361.469 284.844 361.268 285.096 361.016 285.311C360.764 285.526 360.475 285.694 360.148 285.815C359.821 285.936 359.462 285.997 359.07 285.997C358.538 285.997 358.085 285.885 357.712 285.661C357.348 285.428 357.068 285.11 356.872 284.709C356.685 284.298 356.592 283.827 356.592 283.295V279.067C356.592 278.908 356.643 278.778 356.746 278.675C356.858 278.563 356.993 278.507 357.152 278.507C357.32 278.507 357.455 278.563 357.558 278.675C357.661 278.778 357.712 278.908 357.712 279.067V283.043C357.712 283.678 357.852 284.158 358.132 284.485C358.412 284.802 358.846 284.961 359.434 284.961C359.807 284.961 360.143 284.877 360.442 284.709C360.75 284.541 360.993 284.312 361.17 284.023C361.357 283.724 361.45 283.398 361.45 283.043V279.067C361.45 278.908 361.501 278.778 361.604 278.675C361.707 278.563 361.842 278.507 362.01 278.507Z" fill="#B1BAED"/>
<path d="M407.285 285.64C406.715 285.64 406.197 285.496 405.731 285.206C405.273 284.917 404.914 284.53 404.653 284.044C404.587 283.932 404.555 283.825 404.555 283.722C404.555 283.564 404.615 283.438 404.737 283.344C404.858 283.242 404.979 283.19 405.101 283.19C405.203 283.19 405.297 283.218 405.381 283.274C405.474 283.33 405.553 283.4 405.619 283.484C405.805 283.802 406.039 284.054 406.319 284.24C406.599 284.427 406.921 284.52 407.285 284.52C407.667 284.52 408.003 284.436 408.293 284.268C408.591 284.1 408.825 283.872 408.993 283.582C409.17 283.284 409.259 282.948 409.259 282.574V276.26C409.259 276.102 409.315 275.971 409.427 275.868C409.548 275.756 409.693 275.7 409.861 275.7C410.029 275.7 410.164 275.756 410.267 275.868C410.379 275.971 410.435 276.102 410.435 276.26V282.574C410.435 283.144 410.295 283.662 410.015 284.128C409.744 284.595 409.371 284.964 408.895 285.234C408.428 285.505 407.891 285.64 407.285 285.64ZM418.113 278.262C418.281 278.262 418.416 278.318 418.519 278.43C418.621 278.533 418.673 278.664 418.673 278.822V282.644C418.673 283.587 418.407 284.32 417.875 284.842C417.352 285.356 416.619 285.612 415.677 285.612C414.743 285.612 414.011 285.356 413.479 284.842C412.956 284.32 412.695 283.587 412.695 282.644V278.822C412.695 278.664 412.746 278.533 412.849 278.43C412.961 278.318 413.096 278.262 413.255 278.262C413.423 278.262 413.558 278.318 413.661 278.43C413.763 278.533 413.815 278.664 413.815 278.822V282.644C413.815 283.279 413.978 283.76 414.305 284.086C414.631 284.413 415.089 284.576 415.677 284.576C416.283 284.576 416.745 284.413 417.063 284.086C417.389 283.76 417.553 283.279 417.553 282.644V278.822C417.553 278.664 417.604 278.533 417.707 278.43C417.819 278.318 417.954 278.262 418.113 278.262ZM424.345 278.08C424.98 278.08 425.479 278.211 425.843 278.472C426.207 278.734 426.464 279.084 426.613 279.522C426.772 279.961 426.851 280.451 426.851 280.992V284.926C426.851 285.085 426.795 285.22 426.683 285.332C426.581 285.444 426.45 285.5 426.291 285.5C426.133 285.5 425.997 285.444 425.885 285.332C425.783 285.22 425.731 285.085 425.731 284.926V281.02C425.731 280.666 425.675 280.348 425.563 280.068C425.461 279.779 425.283 279.55 425.031 279.382C424.789 279.205 424.453 279.116 424.023 279.116C423.631 279.116 423.272 279.205 422.945 279.382C422.619 279.55 422.357 279.779 422.161 280.068C421.965 280.348 421.867 280.666 421.867 281.02V284.926C421.867 285.085 421.811 285.22 421.699 285.332C421.597 285.444 421.466 285.5 421.307 285.5C421.149 285.5 421.013 285.444 420.901 285.332C420.799 285.22 420.747 285.085 420.747 284.926V278.822C420.747 278.664 420.799 278.533 420.901 278.43C421.013 278.318 421.149 278.262 421.307 278.262C421.475 278.262 421.611 278.318 421.713 278.43C421.816 278.533 421.867 278.664 421.867 278.822V279.816L421.587 280.124C421.634 279.882 421.741 279.639 421.909 279.396C422.077 279.144 422.287 278.92 422.539 278.724C422.791 278.528 423.071 278.374 423.379 278.262C423.687 278.141 424.009 278.08 424.345 278.08Z" fill="#B1BAED"/>
<path d="M64.9727 169C64.9727 164.582 68.5544 161 72.9727 161H76.7477C81.1659 161 84.7477 164.582 84.7477 169V252H64.9727V169Z" fill="url(#paint0_linear_188_3201)"/>
<path d="M132.772 134C132.772 129.582 136.353 126 140.772 126H144.547C148.965 126 152.547 129.582 152.547 134V252H132.772V134Z" fill="url(#paint1_linear_188_3201)"/>
<path d="M268.372 71.0001C268.372 66.5818 271.954 63.0001 276.372 63.0001H280.147C284.566 63.0001 288.147 66.5818 288.147 71.0001V252H268.372V71.0001Z" fill="url(#paint2_linear_188_3201)"/>
<path d="M200.573 43.0001C200.573 38.5818 204.155 35.0001 208.573 35.0001H212.348C216.766 35.0001 220.348 38.5818 220.348 43.0001V252H200.573V43.0001Z" fill="url(#paint3_linear_188_3201)"/>
<path d="M336.174 155C336.174 150.582 339.755 147 344.174 147H347.949C352.367 147 355.949 150.582 355.949 155V252H336.174V155Z" fill="url(#paint4_linear_188_3201)"/>
<path d="M403.973 102.5C403.973 98.0817 407.554 94.5 411.973 94.5H415.748C420.166 94.5 423.748 98.0817 423.748 102.5V252H403.973V102.5Z" fill="url(#paint5_linear_188_3201)"/>
<defs>
<filter id="filter0_b_188_3201" x="-10" y="-10" width="472" height="342" filterUnits="userSpaceOnUse" color-interpolation-filters="sRGB">
<feFlood flood-opacity="0" result="BackgroundImageFix"/>
<feGaussianBlur in="BackgroundImageFix" stdDeviation="5"/>
<feComposite in2="SourceAlpha" operator="in" result="effect1_backgroundBlur_188_3201"/>
<feBlend mode="normal" in="SourceGraphic" in2="effect1_backgroundBlur_188_3201" result="shape"/>
</filter>
<linearGradient id="paint0_linear_188_3201" x1="34.6039" y1="185.772" x2="102.755" y2="243.21" gradientUnits="userSpaceOnUse">
<stop offset="0.0001" stop-color="#D8FDFF"/>
<stop offset="0.535" stop-color="#5C98DF"/>
<stop offset="1" stop-color="#C01FF9"/>
</linearGradient>
<linearGradient id="paint1_linear_188_3201" x1="102.403" y1="160.3" x2="187.452" y2="212.069" gradientUnits="userSpaceOnUse">
<stop offset="0.0001" stop-color="#D8FDFF"/>
<stop offset="0.535" stop-color="#5C98DF"/>
<stop offset="1" stop-color="#C01FF9"/>
</linearGradient>
<linearGradient id="paint2_linear_188_3201" x1="238.004" y1="114.45" x2="338.084" y2="155.062" gradientUnits="userSpaceOnUse">
<stop offset="0.0001" stop-color="#D8FDFF"/>
<stop offset="0.535" stop-color="#5C98DF"/>
<stop offset="1" stop-color="#C01FF9"/>
</linearGradient>
<linearGradient id="paint3_linear_188_3201" x1="170.204" y1="94.0723" x2="273.821" y2="130.694" gradientUnits="userSpaceOnUse">
<stop offset="0.0001" stop-color="#D8FDFF"/>
<stop offset="0.535" stop-color="#5C98DF"/>
<stop offset="1" stop-color="#C01FF9"/>
</linearGradient>
<linearGradient id="paint4_linear_188_3201" x1="305.805" y1="175.583" x2="381.813" y2="231.102" gradientUnits="userSpaceOnUse">
<stop offset="0.0001" stop-color="#D8FDFF"/>
<stop offset="0.535" stop-color="#5C98DF"/>
<stop offset="1" stop-color="#C01FF9"/>
</linearGradient>
<linearGradient id="paint5_linear_188_3201" x1="373.604" y1="137.375" x2="467.823" y2="183.255" gradientUnits="userSpaceOnUse">
<stop offset="0.0001" stop-color="#D8FDFF"/>
<stop offset="0.535" stop-color="#5C98DF"/>
<stop offset="1" stop-color="#C01FF9"/>
</linearGradient>
</defs>
</svg>
