<svg width="16" height="16" viewBox="0 0 16 16" fill="none" xmlns="http://www.w3.org/2000/svg">
<g clip-path="url(#clip0_702_8996)">
<mask id="path-1-inside-1_702_8996" fill="white">
<path d="M0.333333 1.33333H0.5C0.544203 1.33333 0.586595 1.35089 0.617851 1.38215C0.649107 1.4134 0.666667 1.4558 0.666667 1.5V1.66667C0.666667 1.75507 0.701786 1.83986 0.764298 1.90237C0.82681 1.96488 0.911595 2 1 2C1.08841 2 1.17319 1.96488 1.2357 1.90237C1.29821 1.83986 1.33333 1.75507 1.33333 1.66667V1.5C1.33333 1.4558 1.35089 1.4134 1.38215 1.38215C1.4134 1.35089 1.4558 1.33333 1.5 1.33333H1.66667C1.75507 1.33333 1.83986 1.29821 1.90237 1.2357C1.96488 1.17319 2 1.08841 2 1C2 0.911595 1.96488 0.82681 1.90237 0.764298C1.83986 0.701786 1.75507 0.666667 1.66667 0.666667H1.5C1.4558 0.666667 1.4134 0.649107 1.38215 0.617851C1.35089 0.586595 1.33333 0.544203 1.33333 0.5V0.333333C1.33333 0.244928 1.29821 0.160143 1.2357 0.0976311C1.17319 0.035119 1.08841 0 1 0C0.911595 0 0.82681 0.035119 0.764298 0.0976311C0.701786 0.160143 0.666667 0.244928 0.666667 0.333333V0.5C0.666667 0.544203 0.649107 0.586595 0.617851 0.617851C0.586595 0.649107 0.544203 0.666667 0.5 0.666667H0.333333C0.244928 0.666667 0.160143 0.701786 0.0976311 0.764298C0.035119 0.82681 0 0.911595 0 1C0 1.08841 0.035119 1.17319 0.0976311 1.2357C0.160143 1.29821 0.244928 1.33333 0.333333 1.33333Z"/>
<path d="M13.3333 6H13.1667C13.1225 6 13.0801 5.98244 13.0488 5.95118C13.0176 5.91993 13 5.87754 13 5.83333V5.66667C13 5.57826 12.9649 5.49348 12.9024 5.43096C12.8399 5.36845 12.7551 5.33333 12.6667 5.33333C12.5783 5.33333 12.4935 5.36845 12.431 5.43096C12.3685 5.49348 12.3333 5.57826 12.3333 5.66667V5.83333C12.3333 5.87754 12.3158 5.91993 12.2845 5.95118C12.2533 5.98244 12.2109 6 12.1667 6H12C11.9116 6 11.8268 6.03512 11.7643 6.09763C11.7018 6.16014 11.6667 6.24493 11.6667 6.33333C11.6667 6.42174 11.7018 6.50652 11.7643 6.56904C11.8268 6.63155 11.9116 6.66667 12 6.66667H12.1667C12.2109 6.66667 12.2533 6.68423 12.2845 6.71548C12.3158 6.74674 12.3333 6.78913 12.3333 6.83333V7C12.3333 7.08841 12.3685 7.17319 12.431 7.2357C12.4935 7.29821 12.5783 7.33333 12.6667 7.33333C12.7551 7.33333 12.8399 7.29821 12.9024 7.2357C12.9649 7.17319 13 7.08841 13 7V6.83333C13 6.78913 13.0176 6.74674 13.0488 6.71548C13.0801 6.68423 13.1225 6.66667 13.1667 6.66667H13.3333C13.4217 6.66667 13.5065 6.63155 13.569 6.56904C13.6315 6.50652 13.6667 6.42174 13.6667 6.33333C13.6667 6.24493 13.6315 6.16014 13.569 6.09763C13.5065 6.03512 13.4217 6 13.3333 6Z"/>
<path d="M7.33333 1.66667H7.5C7.5442 1.66667 7.5866 1.68423 7.61785 1.71548C7.64911 1.74674 7.66667 1.78913 7.66667 1.83333V2C7.66667 2.08841 7.70179 2.17319 7.7643 2.2357C7.82681 2.29821 7.91159 2.33333 8 2.33333C8.08841 2.33333 8.17319 2.29821 8.2357 2.2357C8.29821 2.17319 8.33333 2.08841 8.33333 2V1.83333C8.33333 1.78913 8.35089 1.74674 8.38215 1.71548C8.41341 1.68423 8.4558 1.66667 8.5 1.66667H8.66667C8.75507 1.66667 8.83986 1.63155 8.90237 1.56904C8.96488 1.50652 9 1.42174 9 1.33333C9 1.24493 8.96488 1.16014 8.90237 1.09763C8.83986 1.03512 8.75507 1 8.66667 1H8.5C8.4558 1 8.41341 0.982441 8.38215 0.951184C8.35089 0.919928 8.33333 0.877536 8.33333 0.833333V0.666667C8.33333 0.578261 8.29821 0.493477 8.2357 0.430964C8.17319 0.368452 8.08841 0.333333 8 0.333333C7.91159 0.333333 7.82681 0.368452 7.7643 0.430964C7.70179 0.493477 7.66667 0.578261 7.66667 0.666667V0.833333C7.66667 0.877536 7.64911 0.919928 7.61785 0.951184C7.5866 0.982441 7.5442 1 7.5 1H7.33333C7.24493 1 7.16014 1.03512 7.09763 1.09763C7.03512 1.16014 7 1.24493 7 1.33333C7 1.42174 7.03512 1.50652 7.09763 1.56904C7.16014 1.63155 7.24493 1.66667 7.33333 1.66667Z"/>
<path d="M1 4.33333C0.999941 4.42617 1.02573 4.51719 1.07448 4.59619C1.12322 4.6752 1.193 4.73908 1.276 4.78067L2.174 5.22933C2.43213 5.35821 2.6415 5.56734 2.77067 5.82533L3.21933 6.72333C3.26084 6.80645 3.32467 6.87636 3.40369 6.92522C3.4827 6.97408 3.57377 6.99997 3.66667 6.99997C3.75957 6.99997 3.85063 6.97408 3.92965 6.92522C4.00866 6.87636 4.0725 6.80645 4.114 6.72333L4.56267 5.82533C4.69183 5.56734 4.9012 5.35821 5.15933 5.22933L6.05667 4.78067C6.13978 4.73916 6.20969 4.67533 6.25855 4.59631C6.30742 4.5173 6.3333 4.42623 6.3333 4.33333C6.3333 4.24043 6.30742 4.14937 6.25855 4.07035C6.20969 3.99134 6.13978 3.9275 6.05667 3.886L5.15933 3.438C4.9008 3.30777 4.69145 3.09725 4.56267 2.838L4.114 1.94333C4.06797 1.86568 4.00252 1.80134 3.92409 1.75665C3.84566 1.71196 3.75694 1.68846 3.66667 1.68846C3.57639 1.68846 3.48768 1.71196 3.40924 1.75665C3.33081 1.80134 3.26536 1.86568 3.21933 1.94333L2.77067 2.84133C2.64188 3.10059 2.43253 3.31111 2.174 3.44133L1.276 3.88933C1.19351 3.93067 1.12406 3.99402 1.07535 4.07239C1.02664 4.15075 1.00056 4.24107 1 4.33333Z"/>
<path d="M15.9293 0.368667C15.8502 0.210659 15.7116 0.0905159 15.544 0.0346382C15.3764 -0.0212394 15.1934 -0.00828081 15.0353 0.0706667L8.36867 3.404C8.21007 3.48303 8.08936 3.62184 8.0331 3.78987C7.97684 3.9579 7.98963 4.1414 8.06867 4.3C8.1477 4.4586 8.2865 4.57931 8.45453 4.63557C8.62257 4.69183 8.80607 4.67903 8.96467 4.6L15.6313 1.26667C15.7101 1.22751 15.7803 1.17316 15.838 1.10675C15.8956 1.04033 15.9396 0.963166 15.9673 0.879695C15.995 0.796224 16.0059 0.708098 15.9994 0.620392C15.9928 0.532687 15.969 0.447135 15.9293 0.368667Z"/>
<path d="M10.3333 12.3333H3C2.91159 12.3333 2.82681 12.3685 2.7643 12.431C2.70179 12.4935 2.66667 12.5783 2.66667 12.6667V14.222C2.66367 14.4526 2.70614 14.6815 2.79163 14.8956C2.87713 15.1098 3.00399 15.305 3.16496 15.4701C3.32592 15.6352 3.51785 15.767 3.72976 15.8579C3.94167 15.9489 4.16942 15.9971 4.4 16H8.93333C9.39889 15.9939 9.84297 15.8031 10.168 15.4697C10.493 15.1363 10.6724 14.6876 10.6667 14.222V12.6667C10.6667 12.5783 10.6315 12.4935 10.569 12.431C10.5065 12.3685 10.4217 12.3333 10.3333 12.3333Z"/>
<path d="M12.6667 8.33333H0.666667C0.489856 8.33333 0.320286 8.40357 0.195262 8.5286C0.0702379 8.65362 0 8.82319 0 9C0 9.17681 0.0702379 9.34638 0.195262 9.47141C0.320286 9.59643 0.489856 9.66667 0.666667 9.66667H2.33333C2.42174 9.66667 2.50652 9.70179 2.56904 9.7643C2.63155 9.82681 2.66667 9.91159 2.66667 10V11C2.66667 11.0884 2.70179 11.1732 2.7643 11.2357C2.82681 11.2982 2.91159 11.3333 3 11.3333H10.3333C10.4217 11.3333 10.5065 11.2982 10.569 11.2357C10.6315 11.1732 10.6667 11.0884 10.6667 11V10C10.6667 9.91159 10.7018 9.82681 10.7643 9.7643C10.8268 9.70179 10.9116 9.66667 11 9.66667H12.6667C12.8435 9.66667 13.013 9.59643 13.1381 9.47141C13.2631 9.34638 13.3333 9.17681 13.3333 9C13.3333 8.82319 13.2631 8.65362 13.1381 8.5286C13.013 8.40357 12.8435 8.33333 12.6667 8.33333Z"/>
</mask>
<path d="M0.333333 1.33333H0.5C0.544203 1.33333 0.586595 1.35089 0.617851 1.38215C0.649107 1.4134 0.666667 1.4558 0.666667 1.5V1.66667C0.666667 1.75507 0.701786 1.83986 0.764298 1.90237C0.82681 1.96488 0.911595 2 1 2C1.08841 2 1.17319 1.96488 1.2357 1.90237C1.29821 1.83986 1.33333 1.75507 1.33333 1.66667V1.5C1.33333 1.4558 1.35089 1.4134 1.38215 1.38215C1.4134 1.35089 1.4558 1.33333 1.5 1.33333H1.66667C1.75507 1.33333 1.83986 1.29821 1.90237 1.2357C1.96488 1.17319 2 1.08841 2 1C2 0.911595 1.96488 0.82681 1.90237 0.764298C1.83986 0.701786 1.75507 0.666667 1.66667 0.666667H1.5C1.4558 0.666667 1.4134 0.649107 1.38215 0.617851C1.35089 0.586595 1.33333 0.544203 1.33333 0.5V0.333333C1.33333 0.244928 1.29821 0.160143 1.2357 0.0976311C1.17319 0.035119 1.08841 0 1 0C0.911595 0 0.82681 0.035119 0.764298 0.0976311C0.701786 0.160143 0.666667 0.244928 0.666667 0.333333V0.5C0.666667 0.544203 0.649107 0.586595 0.617851 0.617851C0.586595 0.649107 0.544203 0.666667 0.5 0.666667H0.333333C0.244928 0.666667 0.160143 0.701786 0.0976311 0.764298C0.035119 0.82681 0 0.911595 0 1C0 1.08841 0.035119 1.17319 0.0976311 1.2357C0.160143 1.29821 0.244928 1.33333 0.333333 1.33333Z" fill="black"/>
<path d="M13.3333 6H13.1667C13.1225 6 13.0801 5.98244 13.0488 5.95118C13.0176 5.91993 13 5.87754 13 5.83333V5.66667C13 5.57826 12.9649 5.49348 12.9024 5.43096C12.8399 5.36845 12.7551 5.33333 12.6667 5.33333C12.5783 5.33333 12.4935 5.36845 12.431 5.43096C12.3685 5.49348 12.3333 5.57826 12.3333 5.66667V5.83333C12.3333 5.87754 12.3158 5.91993 12.2845 5.95118C12.2533 5.98244 12.2109 6 12.1667 6H12C11.9116 6 11.8268 6.03512 11.7643 6.09763C11.7018 6.16014 11.6667 6.24493 11.6667 6.33333C11.6667 6.42174 11.7018 6.50652 11.7643 6.56904C11.8268 6.63155 11.9116 6.66667 12 6.66667H12.1667C12.2109 6.66667 12.2533 6.68423 12.2845 6.71548C12.3158 6.74674 12.3333 6.78913 12.3333 6.83333V7C12.3333 7.08841 12.3685 7.17319 12.431 7.2357C12.4935 7.29821 12.5783 7.33333 12.6667 7.33333C12.7551 7.33333 12.8399 7.29821 12.9024 7.2357C12.9649 7.17319 13 7.08841 13 7V6.83333C13 6.78913 13.0176 6.74674 13.0488 6.71548C13.0801 6.68423 13.1225 6.66667 13.1667 6.66667H13.3333C13.4217 6.66667 13.5065 6.63155 13.569 6.56904C13.6315 6.50652 13.6667 6.42174 13.6667 6.33333C13.6667 6.24493 13.6315 6.16014 13.569 6.09763C13.5065 6.03512 13.4217 6 13.3333 6Z" fill="black"/>
<path d="M7.33333 1.66667H7.5C7.5442 1.66667 7.5866 1.68423 7.61785 1.71548C7.64911 1.74674 7.66667 1.78913 7.66667 1.83333V2C7.66667 2.08841 7.70179 2.17319 7.7643 2.2357C7.82681 2.29821 7.91159 2.33333 8 2.33333C8.08841 2.33333 8.17319 2.29821 8.2357 2.2357C8.29821 2.17319 8.33333 2.08841 8.33333 2V1.83333C8.33333 1.78913 8.35089 1.74674 8.38215 1.71548C8.41341 1.68423 8.4558 1.66667 8.5 1.66667H8.66667C8.75507 1.66667 8.83986 1.63155 8.90237 1.56904C8.96488 1.50652 9 1.42174 9 1.33333C9 1.24493 8.96488 1.16014 8.90237 1.09763C8.83986 1.03512 8.75507 1 8.66667 1H8.5C8.4558 1 8.41341 0.982441 8.38215 0.951184C8.35089 0.919928 8.33333 0.877536 8.33333 0.833333V0.666667C8.33333 0.578261 8.29821 0.493477 8.2357 0.430964C8.17319 0.368452 8.08841 0.333333 8 0.333333C7.91159 0.333333 7.82681 0.368452 7.7643 0.430964C7.70179 0.493477 7.66667 0.578261 7.66667 0.666667V0.833333C7.66667 0.877536 7.64911 0.919928 7.61785 0.951184C7.5866 0.982441 7.5442 1 7.5 1H7.33333C7.24493 1 7.16014 1.03512 7.09763 1.09763C7.03512 1.16014 7 1.24493 7 1.33333C7 1.42174 7.03512 1.50652 7.09763 1.56904C7.16014 1.63155 7.24493 1.66667 7.33333 1.66667Z" fill="black"/>
<path d="M1 4.33333C0.999941 4.42617 1.02573 4.51719 1.07448 4.59619C1.12322 4.6752 1.193 4.73908 1.276 4.78067L2.174 5.22933C2.43213 5.35821 2.6415 5.56734 2.77067 5.82533L3.21933 6.72333C3.26084 6.80645 3.32467 6.87636 3.40369 6.92522C3.4827 6.97408 3.57377 6.99997 3.66667 6.99997C3.75957 6.99997 3.85063 6.97408 3.92965 6.92522C4.00866 6.87636 4.0725 6.80645 4.114 6.72333L4.56267 5.82533C4.69183 5.56734 4.9012 5.35821 5.15933 5.22933L6.05667 4.78067C6.13978 4.73916 6.20969 4.67533 6.25855 4.59631C6.30742 4.5173 6.3333 4.42623 6.3333 4.33333C6.3333 4.24043 6.30742 4.14937 6.25855 4.07035C6.20969 3.99134 6.13978 3.9275 6.05667 3.886L5.15933 3.438C4.9008 3.30777 4.69145 3.09725 4.56267 2.838L4.114 1.94333C4.06797 1.86568 4.00252 1.80134 3.92409 1.75665C3.84566 1.71196 3.75694 1.68846 3.66667 1.68846C3.57639 1.68846 3.48768 1.71196 3.40924 1.75665C3.33081 1.80134 3.26536 1.86568 3.21933 1.94333L2.77067 2.84133C2.64188 3.10059 2.43253 3.31111 2.174 3.44133L1.276 3.88933C1.19351 3.93067 1.12406 3.99402 1.07535 4.07239C1.02664 4.15075 1.00056 4.24107 1 4.33333Z" fill="black"/>
<path d="M15.9293 0.368667C15.8502 0.210659 15.7116 0.0905159 15.544 0.0346382C15.3764 -0.0212394 15.1934 -0.00828081 15.0353 0.0706667L8.36867 3.404C8.21007 3.48303 8.08936 3.62184 8.0331 3.78987C7.97684 3.9579 7.98963 4.1414 8.06867 4.3C8.1477 4.4586 8.2865 4.57931 8.45453 4.63557C8.62257 4.69183 8.80607 4.67903 8.96467 4.6L15.6313 1.26667C15.7101 1.22751 15.7803 1.17316 15.838 1.10675C15.8956 1.04033 15.9396 0.963166 15.9673 0.879695C15.995 0.796224 16.0059 0.708098 15.9994 0.620392C15.9928 0.532687 15.969 0.447135 15.9293 0.368667Z" fill="black"/>
<path d="M10.3333 12.3333H3C2.91159 12.3333 2.82681 12.3685 2.7643 12.431C2.70179 12.4935 2.66667 12.5783 2.66667 12.6667V14.222C2.66367 14.4526 2.70614 14.6815 2.79163 14.8956C2.87713 15.1098 3.00399 15.305 3.16496 15.4701C3.32592 15.6352 3.51785 15.767 3.72976 15.8579C3.94167 15.9489 4.16942 15.9971 4.4 16H8.93333C9.39889 15.9939 9.84297 15.8031 10.168 15.4697C10.493 15.1363 10.6724 14.6876 10.6667 14.222V12.6667C10.6667 12.5783 10.6315 12.4935 10.569 12.431C10.5065 12.3685 10.4217 12.3333 10.3333 12.3333Z" fill="black"/>
<path d="M12.6667 8.33333H0.666667C0.489856 8.33333 0.320286 8.40357 0.195262 8.5286C0.0702379 8.65362 0 8.82319 0 9C0 9.17681 0.0702379 9.34638 0.195262 9.47141C0.320286 9.59643 0.489856 9.66667 0.666667 9.66667H2.33333C2.42174 9.66667 2.50652 9.70179 2.56904 9.7643C2.63155 9.82681 2.66667 9.91159 2.66667 10V11C2.66667 11.0884 2.70179 11.1732 2.7643 11.2357C2.82681 11.2982 2.91159 11.3333 3 11.3333H10.3333C10.4217 11.3333 10.5065 11.2982 10.569 11.2357C10.6315 11.1732 10.6667 11.0884 10.6667 11V10C10.6667 9.91159 10.7018 9.82681 10.7643 9.7643C10.8268 9.70179 10.9116 9.66667 11 9.66667H12.6667C12.8435 9.66667 13.013 9.59643 13.1381 9.47141C13.2631 9.34638 13.3333 9.17681 13.3333 9C13.3333 8.82319 13.2631 8.65362 13.1381 8.5286C13.013 8.40357 12.8435 8.33333 12.6667 8.33333Z" fill="black"/>
<path d="M0.333333 1.33333H0.5C0.544203 1.33333 0.586595 1.35089 0.617851 1.38215C0.649107 1.4134 0.666667 1.4558 0.666667 1.5V1.66667C0.666667 1.75507 0.701786 1.83986 0.764298 1.90237C0.82681 1.96488 0.911595 2 1 2C1.08841 2 1.17319 1.96488 1.2357 1.90237C1.29821 1.83986 1.33333 1.75507 1.33333 1.66667V1.5C1.33333 1.4558 1.35089 1.4134 1.38215 1.38215C1.4134 1.35089 1.4558 1.33333 1.5 1.33333H1.66667C1.75507 1.33333 1.83986 1.29821 1.90237 1.2357C1.96488 1.17319 2 1.08841 2 1C2 0.911595 1.96488 0.82681 1.90237 0.764298C1.83986 0.701786 1.75507 0.666667 1.66667 0.666667H1.5C1.4558 0.666667 1.4134 0.649107 1.38215 0.617851C1.35089 0.586595 1.33333 0.544203 1.33333 0.5V0.333333C1.33333 0.244928 1.29821 0.160143 1.2357 0.0976311C1.17319 0.035119 1.08841 0 1 0C0.911595 0 0.82681 0.035119 0.764298 0.0976311C0.701786 0.160143 0.666667 0.244928 0.666667 0.333333V0.5C0.666667 0.544203 0.649107 0.586595 0.617851 0.617851C0.586595 0.649107 0.544203 0.666667 0.5 0.666667H0.333333C0.244928 0.666667 0.160143 0.701786 0.0976311 0.764298C0.035119 0.82681 0 0.911595 0 1C0 1.08841 0.035119 1.17319 0.0976311 1.2357C0.160143 1.29821 0.244928 1.33333 0.333333 1.33333Z" stroke="black" stroke-width="2" mask="url(#path-1-inside-1_702_8996)"/>
<path d="M13.3333 6H13.1667C13.1225 6 13.0801 5.98244 13.0488 5.95118C13.0176 5.91993 13 5.87754 13 5.83333V5.66667C13 5.57826 12.9649 5.49348 12.9024 5.43096C12.8399 5.36845 12.7551 5.33333 12.6667 5.33333C12.5783 5.33333 12.4935 5.36845 12.431 5.43096C12.3685 5.49348 12.3333 5.57826 12.3333 5.66667V5.83333C12.3333 5.87754 12.3158 5.91993 12.2845 5.95118C12.2533 5.98244 12.2109 6 12.1667 6H12C11.9116 6 11.8268 6.03512 11.7643 6.09763C11.7018 6.16014 11.6667 6.24493 11.6667 6.33333C11.6667 6.42174 11.7018 6.50652 11.7643 6.56904C11.8268 6.63155 11.9116 6.66667 12 6.66667H12.1667C12.2109 6.66667 12.2533 6.68423 12.2845 6.71548C12.3158 6.74674 12.3333 6.78913 12.3333 6.83333V7C12.3333 7.08841 12.3685 7.17319 12.431 7.2357C12.4935 7.29821 12.5783 7.33333 12.6667 7.33333C12.7551 7.33333 12.8399 7.29821 12.9024 7.2357C12.9649 7.17319 13 7.08841 13 7V6.83333C13 6.78913 13.0176 6.74674 13.0488 6.71548C13.0801 6.68423 13.1225 6.66667 13.1667 6.66667H13.3333C13.4217 6.66667 13.5065 6.63155 13.569 6.56904C13.6315 6.50652 13.6667 6.42174 13.6667 6.33333C13.6667 6.24493 13.6315 6.16014 13.569 6.09763C13.5065 6.03512 13.4217 6 13.3333 6Z" stroke="black" stroke-width="2" mask="url(#path-1-inside-1_702_8996)"/>
<path d="M7.33333 1.66667H7.5C7.5442 1.66667 7.5866 1.68423 7.61785 1.71548C7.64911 1.74674 7.66667 1.78913 7.66667 1.83333V2C7.66667 2.08841 7.70179 2.17319 7.7643 2.2357C7.82681 2.29821 7.91159 2.33333 8 2.33333C8.08841 2.33333 8.17319 2.29821 8.2357 2.2357C8.29821 2.17319 8.33333 2.08841 8.33333 2V1.83333C8.33333 1.78913 8.35089 1.74674 8.38215 1.71548C8.41341 1.68423 8.4558 1.66667 8.5 1.66667H8.66667C8.75507 1.66667 8.83986 1.63155 8.90237 1.56904C8.96488 1.50652 9 1.42174 9 1.33333C9 1.24493 8.96488 1.16014 8.90237 1.09763C8.83986 1.03512 8.75507 1 8.66667 1H8.5C8.4558 1 8.41341 0.982441 8.38215 0.951184C8.35089 0.919928 8.33333 0.877536 8.33333 0.833333V0.666667C8.33333 0.578261 8.29821 0.493477 8.2357 0.430964C8.17319 0.368452 8.08841 0.333333 8 0.333333C7.91159 0.333333 7.82681 0.368452 7.7643 0.430964C7.70179 0.493477 7.66667 0.578261 7.66667 0.666667V0.833333C7.66667 0.877536 7.64911 0.919928 7.61785 0.951184C7.5866 0.982441 7.5442 1 7.5 1H7.33333C7.24493 1 7.16014 1.03512 7.09763 1.09763C7.03512 1.16014 7 1.24493 7 1.33333C7 1.42174 7.03512 1.50652 7.09763 1.56904C7.16014 1.63155 7.24493 1.66667 7.33333 1.66667Z" stroke="black" stroke-width="2" mask="url(#path-1-inside-1_702_8996)"/>
<path d="M1 4.33333C0.999941 4.42617 1.02573 4.51719 1.07448 4.59619C1.12322 4.6752 1.193 4.73908 1.276 4.78067L2.174 5.22933C2.43213 5.35821 2.6415 5.56734 2.77067 5.82533L3.21933 6.72333C3.26084 6.80645 3.32467 6.87636 3.40369 6.92522C3.4827 6.97408 3.57377 6.99997 3.66667 6.99997C3.75957 6.99997 3.85063 6.97408 3.92965 6.92522C4.00866 6.87636 4.0725 6.80645 4.114 6.72333L4.56267 5.82533C4.69183 5.56734 4.9012 5.35821 5.15933 5.22933L6.05667 4.78067C6.13978 4.73916 6.20969 4.67533 6.25855 4.59631C6.30742 4.5173 6.3333 4.42623 6.3333 4.33333C6.3333 4.24043 6.30742 4.14937 6.25855 4.07035C6.20969 3.99134 6.13978 3.9275 6.05667 3.886L5.15933 3.438C4.9008 3.30777 4.69145 3.09725 4.56267 2.838L4.114 1.94333C4.06797 1.86568 4.00252 1.80134 3.92409 1.75665C3.84566 1.71196 3.75694 1.68846 3.66667 1.68846C3.57639 1.68846 3.48768 1.71196 3.40924 1.75665C3.33081 1.80134 3.26536 1.86568 3.21933 1.94333L2.77067 2.84133C2.64188 3.10059 2.43253 3.31111 2.174 3.44133L1.276 3.88933C1.19351 3.93067 1.12406 3.99402 1.07535 4.07239C1.02664 4.15075 1.00056 4.24107 1 4.33333Z" stroke="black" stroke-width="2" mask="url(#path-1-inside-1_702_8996)"/>
<path d="M15.9293 0.368667C15.8502 0.210659 15.7116 0.0905159 15.544 0.0346382C15.3764 -0.0212394 15.1934 -0.00828081 15.0353 0.0706667L8.36867 3.404C8.21007 3.48303 8.08936 3.62184 8.0331 3.78987C7.97684 3.9579 7.98963 4.1414 8.06867 4.3C8.1477 4.4586 8.2865 4.57931 8.45453 4.63557C8.62257 4.69183 8.80607 4.67903 8.96467 4.6L15.6313 1.26667C15.7101 1.22751 15.7803 1.17316 15.838 1.10675C15.8956 1.04033 15.9396 0.963166 15.9673 0.879695C15.995 0.796224 16.0059 0.708098 15.9994 0.620392C15.9928 0.532687 15.969 0.447135 15.9293 0.368667Z" stroke="black" stroke-width="2" mask="url(#path-1-inside-1_702_8996)"/>
<path d="M10.3333 12.3333H3C2.91159 12.3333 2.82681 12.3685 2.7643 12.431C2.70179 12.4935 2.66667 12.5783 2.66667 12.6667V14.222C2.66367 14.4526 2.70614 14.6815 2.79163 14.8956C2.87713 15.1098 3.00399 15.305 3.16496 15.4701C3.32592 15.6352 3.51785 15.767 3.72976 15.8579C3.94167 15.9489 4.16942 15.9971 4.4 16H8.93333C9.39889 15.9939 9.84297 15.8031 10.168 15.4697C10.493 15.1363 10.6724 14.6876 10.6667 14.222V12.6667C10.6667 12.5783 10.6315 12.4935 10.569 12.431C10.5065 12.3685 10.4217 12.3333 10.3333 12.3333Z" stroke="black" stroke-width="2" mask="url(#path-1-inside-1_702_8996)"/>
<path d="M12.6667 8.33333H0.666667C0.489856 8.33333 0.320286 8.40357 0.195262 8.5286C0.0702379 8.65362 0 8.82319 0 9C0 9.17681 0.0702379 9.34638 0.195262 9.47141C0.320286 9.59643 0.489856 9.66667 0.666667 9.66667H2.33333C2.42174 9.66667 2.50652 9.70179 2.56904 9.7643C2.63155 9.82681 2.66667 9.91159 2.66667 10V11C2.66667 11.0884 2.70179 11.1732 2.7643 11.2357C2.82681 11.2982 2.91159 11.3333 3 11.3333H10.3333C10.4217 11.3333 10.5065 11.2982 10.569 11.2357C10.6315 11.1732 10.6667 11.0884 10.6667 11V10C10.6667 9.91159 10.7018 9.82681 10.7643 9.7643C10.8268 9.70179 10.9116 9.66667 11 9.66667H12.6667C12.8435 9.66667 13.013 9.59643 13.1381 9.47141C13.2631 9.34638 13.3333 9.17681 13.3333 9C13.3333 8.82319 13.2631 8.65362 13.1381 8.5286C13.013 8.40357 12.8435 8.33333 12.6667 8.33333Z" stroke="black" stroke-width="2" mask="url(#path-1-inside-1_702_8996)"/>
</g>
<defs>
<clipPath id="clip0_702_8996">
<rect width="16" height="16" fill="white"/>
</clipPath>
</defs>
</svg>
